<svg aria-hidden="true" style="position: absolute; width: 0; height: 0; overflow: hidden;" version="1.1" xmlns="http://www.w3.org/2000/svg" xmlns:xlink="http://www.w3.org/1999/xlink">
<defs>
<symbol id="icon-invest" viewBox="0 0 32 32">
<path d="M9.475 18.092c-0.497 0.574-1.23 0.937-2.048 0.937-1.495 0-2.708-1.213-2.708-2.708s1.213-2.708 2.708-2.708c1.494 0 2.708 1.214 2.708 2.708 0 0.139-0.011 0.277-0.031 0.411l4.954 1.334v-0.468c0-0.010 0-0.019 0-0.029v-3.475c-0.363-0.044-0.716-0.119-1.056-0.223-1.502-0.458-2.762-1.475-3.534-2.81-0.524-0.906-0.825-1.957-0.825-3.078s0.3-2.172 0.825-3.078c0.772-1.334 2.032-2.352 3.534-2.81 0.568-0.173 1.171-0.266 1.795-0.266 3.396 0 6.154 2.757 6.154 6.154 0 3.146-2.367 5.745-5.415 6.11v2.527l4.954-1.334c-0.021-0.133-0.031-0.271-0.031-0.41 0-1.495 1.213-2.708 2.708-2.708s2.708 1.213 2.708 2.708c0 1.494-1.214 2.708-2.708 2.708-0.818 0-1.551-0.363-2.048-0.937l-5.583 1.503v0.866c0 0.009 0 0.019 0 0.029v1.986h5.908c0.225 0 0.438 0.103 0.578 0.279s0.192 0.407 0.141 0.626l-1.709 7.385c-0.077 0.335-0.376 0.572-0.719 0.572h-9.875c-0.344 0-0.642-0.237-0.719-0.572l-1.709-7.385c-0.051-0.219 0.001-0.45 0.142-0.626s0.353-0.279 0.578-0.279h5.908v-1.434l-5.583-1.503zM8.519 16.89c0.089-0.17 0.139-0.363 0.139-0.568 0-0.679-0.551-1.231-1.231-1.231s-1.231 0.551-1.231 1.231c0 0.679 0.551 1.231 1.231 1.231 0.468 0 0.875-0.262 1.084-0.647 0.002-0.005 0.005-0.010 0.008-0.016zM15.797 12.66c2.581 0 4.677-2.096 4.677-4.677s-2.096-4.677-4.677-4.677c-0.475 0-0.932 0.070-1.364 0.202-1.142 0.348-2.099 1.122-2.687 2.137-0.398 0.688-0.626 1.486-0.626 2.337s0.227 1.65 0.626 2.337c0.588 1.015 1.545 1.789 2.687 2.137 0.432 0.131 0.89 0.202 1.364 0.202zM23.082 15.459c0.208 0.385 0.615 0.647 1.084 0.647 0.679 0 1.231-0.551 1.231-1.231s-0.551-1.231-1.231-1.231c-0.679 0-1.231 0.551-1.231 1.231 0 0.205 0.050 0.398 0.139 0.568 0.003 0.005 0.005 0.010 0.008 0.016zM15.797 22.506h-5.717l1.367 5.908c0 0 8.7 0 8.7 0l1.367-5.908h-5.717zM15.058 8.721v0.78h-1.067c-0.408 0-0.738 0.331-0.738 0.738s0.331 0.738 0.738 0.738h1.067v0.164c0 0.407 0.331 0.738 0.738 0.738s0.738-0.331 0.738-0.738v-0.165c1.002-0.032 1.805-0.855 1.805-1.865v-0.001c0-1.010-0.802-1.833-1.805-1.865v-0.78h1.066c0.408 0 0.738-0.331 0.738-0.738s-0.331-0.738-0.738-0.738h-1.066v-0.164c0-0.408-0.331-0.738-0.738-0.738s-0.738 0.331-0.738 0.738v0.165c-1.002 0.032-1.805 0.855-1.805 1.865v0.001c0 1.010 0.803 1.833 1.805 1.865zM15.058 6.47v0.77c-0.186-0.029-0.328-0.19-0.328-0.384v-0.001c0-0.194 0.142-0.355 0.328-0.385zM16.535 9.497v-0.77c0.186 0.029 0.328 0.19 0.328 0.384v0.001c0 0.194-0.142 0.355-0.328 0.384z"></path>
</symbol>
</defs>
</svg>
