<svg aria-hidden="true" style="position: absolute; width: 0; height: 0; overflow: hidden;" version="1.1" xmlns="http://www.w3.org/2000/svg" xmlns:xlink="http://www.w3.org/1999/xlink">
<defs>
<symbol id="icon-pasiv" viewBox="0 0 32 32">
<path d="M5.474 10.798c-2.831 0-5.118-2.306-5.118-5.118 0-2.831 2.287-5.118 5.118-5.118 2.812 0 5.099 2.287 5.099 5.118 0 2.812-2.287 5.118-5.099 5.118zM26.264 27.857v-20.134c0-0.225 0.187-0.412 0.412-0.412h3.243c0.225 0 0.412 0.187 0.412 0.412v20.134h1.237c0.225 0 0.431 0.187 0.431 0.412v2.737c0 0.244-0.206 0.431-0.431 0.431h-31.138c-0.244 0-0.431-0.187-0.431-0.431v-2.737c0-0.225 0.187-0.412 0.431-0.412h1.218v-5.511c0-0.225 0.206-0.412 0.431-0.412h3.224c0.244 0 0.431 0.187 0.431 0.412v5.511h2.062v-9.167c0-0.225 0.206-0.412 0.431-0.412h3.224c0.244 0 0.431 0.187 0.431 0.412v9.167h2.081v-12.822c0-0.225 0.187-0.412 0.412-0.412h3.224c0.244 0 0.431 0.187 0.431 0.412v12.822h2.081v-16.478c0-0.225 0.187-0.412 0.412-0.412h3.224c0.244 0 0.431 0.187 0.431 0.412v16.478h2.081zM27.107 27.857h2.381v-19.702h-2.381v19.702zM23.752 28.701h-22.908v1.875h30.294v-1.875h-7.386zM23.339 27.857v-16.047h-2.381v16.047h2.381zM14.81 27.857h2.381v-12.391h-2.381v12.391zM11.042 27.857v-8.736h-2.381v8.736h2.381zM2.512 27.857h2.381v-5.080h-2.381v5.080zM22.721 7.555c-0.15 0-0.3-0.075-0.375-0.206l-1.106-1.931-20.002 11.548c-0.487 0.281-0.919-0.45-0.431-0.731l20.002-11.548-1.106-1.931c-0.169-0.3 0.056-0.656 0.394-0.637l4.705 0.337c0.3 0.038 0.487 0.356 0.356 0.619l-2.062 4.255c-0.056 0.131-0.206 0.225-0.375 0.225zM20.846 3.018l1.837 3.206 1.443-2.962-3.281-0.244zM6.542 8.248c0.225 0 0.412-0.206 0.412-0.431v-2.137c0-0.244-0.187-0.431-0.412-0.431h-1.725v-1.275h1.725c0.225 0 0.412-0.206 0.412-0.431 0-0.544-0.637-0.431-1.069-0.431 0-0.244 0.056-0.75-0.412-0.75-0.487 0-0.431 0.506-0.431 0.75-1.312 0-1.069-0.187-1.069 2.568 0 0.225 0.187 0.431 0.431 0.431h1.706v1.275h-1.706c-0.244 0-0.431 0.187-0.431 0.431 0 0.525 0.637 0.431 1.069 0.431 0 0.244-0.056 0.75 0.431 0.75 0.469 0 0.412-0.506 0.412-0.75h0.656zM5.474 1.406c-2.362 0-4.274 1.912-4.274 4.274 0 2.343 1.912 4.255 4.274 4.255 2.343 0 4.255-1.912 4.255-4.255 0-2.362-1.912-4.274-4.255-4.274z"></path>
</symbol>
<symbol id="icon-relocate" viewBox="0 0 32 32">
<path d="M16 1c-5.79 0-10.5 4.71-10.5 10.5 0 2.689 0.903 5.344 2.543 7.476l6.224 8.092c-1.709 0.129-4.767 0.552-4.767 1.933 0 1.579 4.086 2 6.5 2s6.5-0.421 6.5-2c0-1.381-3.058-1.803-4.767-1.933l6.224-8.092c0.588-0.764 1.078-1.599 1.468-2.476h0.074c0-0.046-0.008-0.090-0.011-0.136 0.66-1.53 1.011-3.19 1.011-4.864 0-5.79-4.71-10.5-10.5-10.5zM8.5 17.89v-1.39c0-1.013 0.764-1.863 1.779-1.976 0.199-0.022 0.366-0.161 0.424-0.352s-0.005-0.399-0.158-0.528c-0.347-0.289-0.545-0.706-0.545-1.144 0-0.827 0.673-1.5 1.5-1.5s1.5 0.673 1.5 1.5c0 0.438-0.198 0.855-0.544 1.145-0.153 0.129-0.216 0.336-0.158 0.528s0.224 0.331 0.424 0.352c0.862 0.096 1.538 0.726 1.723 1.534-0.572 0.459-0.945 1.154-0.945 1.942 0 0.409 0.102 0.808 0.295 1.167-1.101 0.73-1.787 1.976-1.793 3.314l-3.165-4.116c-0.119-0.154-0.226-0.316-0.336-0.476zM17.269 19.785c1.052 0.493 1.731 1.558 1.731 2.715v1.279l-3 3.9-3-3.9v-1.279c0-1.157 0.679-2.222 1.731-2.715 0.143-0.067 0.246-0.198 0.278-0.354s-0.012-0.316-0.118-0.434c-0.252-0.279-0.39-0.634-0.39-0.997 0-0.827 0.673-1.5 1.5-1.5s1.5 0.673 1.5 1.5c0 0.364-0.139 0.718-0.39 0.998-0.106 0.117-0.15 0.279-0.119 0.434s0.134 0.286 0.277 0.353zM21.485 29c-0.28 0.377-2.25 1-5.485 1s-5.204-0.623-5.485-1c0.234-0.302 1.735-0.861 4.488-0.976l0.6 0.779c0.095 0.123 0.241 0.195 0.396 0.195s0.302-0.072 0.397-0.195l0.6-0.779c2.753 0.114 4.254 0.673 4.488 0.975zM23.165 18.366l-3.166 4.116c-0.006-1.338-0.693-2.584-1.794-3.314 0.192-0.358 0.294-0.759 0.294-1.167v-1.5c0-1.013 0.765-1.863 1.779-1.976 0.199-0.022 0.366-0.161 0.424-0.352s-0.005-0.399-0.157-0.528c-0.347-0.289-0.545-0.706-0.545-1.144 0-0.827 0.673-1.5 1.5-1.5s1.5 0.673 1.5 1.5c0 0.438-0.198 0.855-0.544 1.145-0.154 0.129-0.216 0.336-0.157 0.528 0.058 0.191 0.224 0.331 0.424 0.352 0.905 0.101 1.608 0.79 1.749 1.657-0.352 0.772-0.786 1.508-1.306 2.183zM23.662 13.745c0.22-0.376 0.338-0.803 0.338-1.245 0-1.379-1.122-2.5-2.5-2.5s-2.5 1.121-2.5 2.5c0 0.441 0.119 0.87 0.338 1.245-0.952 0.398-1.643 1.264-1.803 2.297-0.425-0.334-0.954-0.542-1.536-0.542-0.223 0-0.436 0.039-0.642 0.094-0.265-0.832-0.886-1.511-1.697-1.849 0.22-0.376 0.338-0.803 0.338-1.245 0-1.379-1.121-2.5-2.5-2.5s-2.5 1.121-2.5 2.5c0 0.441 0.119 0.87 0.338 1.245-0.991 0.413-1.693 1.338-1.813 2.427-0.665-1.461-1.025-3.058-1.025-4.671 0-5.239 4.261-9.5 9.5-9.5s9.5 4.261 9.5 9.5c0 1.13-0.181 2.252-0.514 3.326-0.323-0.476-0.781-0.855-1.324-1.082z"></path>
<path d="M15.1 12.91l-0.199 0.98c0.36 0.073 0.729 0.11 1.099 0.11 0.764 0 1.505-0.154 2.2-0.458l-0.4-0.916c-0.844 0.368-1.799 0.468-2.7 0.284z"></path>
<path d="M16 3c-3.033 0-5.5 2.467-5.5 5.5h1c0-2.481 2.018-4.5 4.5-4.5s4.5 2.019 4.5 4.5h1c0-3.033-2.468-5.5-5.5-5.5z"></path>
<path d="M16.313 5.109c-0.183-0.146-0.443-0.146-0.625 0l-2.5 2c-0.165 0.133-0.229 0.356-0.159 0.556s0.259 0.335 0.472 0.335h0.5v2c0 0.276 0.223 0.5 0.5 0.5h3c0.276 0 0.5-0.224 0.5-0.5v-2h0.5c0.212 0 0.401-0.134 0.471-0.335s0.006-0.423-0.159-0.556l-2.5-2zM16 6.141l1.075 0.859h-2.149l1.075-0.859zM17 9.5h-2v-1.5h2v1.5z"></path>
</symbol>
<symbol id="icon-invest" viewBox="0 0 32 32">
<path d="M9.475 18.092c-0.497 0.574-1.23 0.937-2.048 0.937-1.495 0-2.708-1.213-2.708-2.708s1.213-2.708 2.708-2.708c1.494 0 2.708 1.214 2.708 2.708 0 0.139-0.011 0.277-0.031 0.411l4.954 1.334v-0.468c0-0.010 0-0.019 0-0.029v-3.475c-0.363-0.044-0.716-0.119-1.056-0.223-1.502-0.458-2.762-1.475-3.534-2.81-0.524-0.906-0.825-1.957-0.825-3.078s0.3-2.172 0.825-3.078c0.772-1.334 2.032-2.352 3.534-2.81 0.568-0.173 1.171-0.266 1.795-0.266 3.396 0 6.154 2.757 6.154 6.154 0 3.146-2.367 5.745-5.415 6.11v2.527l4.954-1.334c-0.021-0.133-0.031-0.271-0.031-0.41 0-1.495 1.213-2.708 2.708-2.708s2.708 1.213 2.708 2.708c0 1.494-1.214 2.708-2.708 2.708-0.818 0-1.551-0.363-2.048-0.937l-5.583 1.503v0.866c0 0.009 0 0.019 0 0.029v1.986h5.908c0.225 0 0.438 0.103 0.578 0.279s0.192 0.407 0.141 0.626l-1.709 7.385c-0.077 0.335-0.376 0.572-0.719 0.572h-9.875c-0.344 0-0.642-0.237-0.719-0.572l-1.709-7.385c-0.051-0.219 0.001-0.45 0.142-0.626s0.353-0.279 0.578-0.279h5.908v-1.434l-5.583-1.503zM8.519 16.89c0.089-0.17 0.139-0.363 0.139-0.568 0-0.679-0.551-1.231-1.231-1.231s-1.231 0.551-1.231 1.231c0 0.679 0.551 1.231 1.231 1.231 0.468 0 0.875-0.262 1.084-0.647 0.002-0.005 0.005-0.010 0.008-0.016zM15.797 12.66c2.581 0 4.677-2.096 4.677-4.677s-2.096-4.677-4.677-4.677c-0.475 0-0.932 0.070-1.364 0.202-1.142 0.348-2.099 1.122-2.687 2.137-0.398 0.688-0.626 1.486-0.626 2.337s0.227 1.65 0.626 2.337c0.588 1.015 1.545 1.789 2.687 2.137 0.432 0.131 0.89 0.202 1.364 0.202zM23.082 15.459c0.208 0.385 0.615 0.647 1.084 0.647 0.679 0 1.231-0.551 1.231-1.231s-0.551-1.231-1.231-1.231c-0.679 0-1.231 0.551-1.231 1.231 0 0.205 0.050 0.398 0.139 0.568 0.003 0.005 0.005 0.010 0.008 0.016zM15.797 22.506h-5.717l1.367 5.908c0 0 8.7 0 8.7 0l1.367-5.908h-5.717zM15.058 8.721v0.78h-1.067c-0.408 0-0.738 0.331-0.738 0.738s0.331 0.738 0.738 0.738h1.067v0.164c0 0.407 0.331 0.738 0.738 0.738s0.738-0.331 0.738-0.738v-0.165c1.002-0.032 1.805-0.855 1.805-1.865v-0.001c0-1.010-0.802-1.833-1.805-1.865v-0.78h1.066c0.408 0 0.738-0.331 0.738-0.738s-0.331-0.738-0.738-0.738h-1.066v-0.164c0-0.408-0.331-0.738-0.738-0.738s-0.738 0.331-0.738 0.738v0.165c-1.002 0.032-1.805 0.855-1.805 1.865v0.001c0 1.010 0.803 1.833 1.805 1.865zM15.058 6.47v0.77c-0.186-0.029-0.328-0.19-0.328-0.384v-0.001c0-0.194 0.142-0.355 0.328-0.385zM16.535 9.497v-0.77c0.186 0.029 0.328 0.19 0.328 0.384v0.001c0 0.194-0.142 0.355-0.328 0.384z"></path>
</symbol>
</defs>
</svg>
