<?xml version="1.0" encoding="UTF-8" standalone="no"?>
<!DOCTYPE svg PUBLIC "-//W3C//DTD SVG 1.1//EN" "http://www.w3.org/Graphics/SVG/1.1/DTD/svg11.dtd">
<svg width="100%" height="100%" viewBox="0 0 65 65" version="1.1" xmlns="http://www.w3.org/2000/svg" xmlns:xlink="http://www.w3.org/1999/xlink" xml:space="preserve" xmlns:serif="http://www.serif.com/" style="fill-rule:evenodd;clip-rule:evenodd;stroke-linejoin:round;stroke-miterlimit:2;">
<rect id="Invest" x="0.087" y="0.216" width="64" height="64" style="fill:none;"/>
<g id="Invest1" serif:id="Invest">
<path d="M19.247,36.75c-1.009,1.165 -2.499,1.903 -4.16,1.903c-3.036,0 -5.5,-2.464 -5.5,-5.5c-0,-3.035 2.464,-5.5 5.5,-5.5c3.035,0 5.5,2.465 5.5,5.5c-0,0.283 -0.022,0.562 -0.063,0.834l10.063,2.709l-0,-0.951c-0,-0.02 -0,-0.039 -0,-0.059l-0,-7.059c-0.737,-0.089 -1.454,-0.241 -2.146,-0.452c-3.051,-0.931 -5.61,-2.997 -7.179,-5.707c-1.065,-1.84 -1.675,-3.975 -1.675,-6.252c-0,-2.277 0.61,-4.412 1.675,-6.252c1.569,-2.71 4.128,-4.777 7.179,-5.707c1.154,-0.352 2.378,-0.541 3.646,-0.541c6.899,-0 12.5,5.601 12.5,12.5c-0,6.391 -4.807,11.669 -11,12.411l-0,5.132l10.063,-2.71c-0.042,-0.271 -0.063,-0.55 -0.063,-0.833c-0,-3.036 2.464,-5.5 5.5,-5.5c3.035,-0 5.5,2.464 5.5,5.5c-0,3.035 -2.465,5.5 -5.5,5.5c-1.661,-0 -3.151,-0.738 -4.16,-1.904l-11.34,3.053l-0,1.759c-0,0.019 -0,0.039 -0,0.058l-0,4.034l12,-0c0.457,-0 0.889,0.209 1.174,0.566c0.285,0.358 0.39,0.827 0.287,1.272l-3.471,15c-0.157,0.68 -0.763,1.162 -1.461,1.162l-20.058,-0c-0.698,-0 -1.304,-0.482 -1.461,-1.162l-3.472,-15c-0.103,-0.445 0.003,-0.914 0.288,-1.272c0.284,-0.357 0.717,-0.566 1.174,-0.566l12,-0l-0,-2.913l-11.34,-3.053Zm-1.942,-2.443c0.18,-0.345 0.282,-0.738 0.282,-1.154c-0,-1.38 -1.12,-2.5 -2.5,-2.5c-1.38,0 -2.5,1.12 -2.5,2.5c-0,1.38 1.12,2.5 2.5,2.5c0.95,0 1.778,-0.532 2.201,-1.314c0.005,-0.01 0.011,-0.021 0.017,-0.032Zm14.782,-8.591c5.243,-0 9.5,-4.257 9.5,-9.5c-0,-5.243 -4.257,-9.5 -9.5,-9.5c-0.964,-0 -1.894,0.143 -2.771,0.411c-2.32,0.707 -4.264,2.28 -5.458,4.341c-0.809,1.397 -1.271,3.019 -1.271,4.748c-0,1.729 0.462,3.351 1.271,4.748c1.194,2.061 3.138,3.634 5.458,4.341c0.877,0.267 1.807,0.411 2.771,0.411Zm14.799,5.686c0.423,0.782 1.25,1.314 2.201,1.314c1.38,-0 2.5,-1.12 2.5,-2.5c-0,-1.38 -1.12,-2.5 -2.5,-2.5c-1.38,-0 -2.5,1.12 -2.5,2.5c-0,0.416 0.102,0.809 0.282,1.154c0.006,0.011 0.011,0.021 0.017,0.032Zm-14.799,14.314l-11.613,-0l2.777,12c-0,-0 17.672,-0 17.672,-0l2.777,-12l-11.613,-0Zm-1.5,-28.002c-2.036,-0.065 -3.667,-1.736 -3.667,-3.788l0,-0.003c0,-2.052 1.631,-3.723 3.667,-3.788l-0,-0.336c-0,-0.828 0.672,-1.5 1.5,-1.5c0.828,0 1.5,0.672 1.5,1.5l-0,0.334l2.166,-0c0.828,-0 1.5,0.672 1.5,1.5c0,0.827 -0.672,1.5 -1.5,1.5l-2.166,-0l-0,1.585c2.036,0.065 3.666,1.736 3.666,3.788l0,0.003c0,2.052 -1.63,3.723 -3.666,3.788l-0,0.336c-0,0.827 -0.672,1.5 -1.5,1.5c-0.828,-0 -1.5,-0.673 -1.5,-1.5l-0,-0.334l-2.167,0c-0.828,0 -1.5,-0.672 -1.5,-1.5c0,-0.828 0.672,-1.5 1.5,-1.5l2.167,0l-0,-1.585Zm-0,-4.572c-0.378,0.059 -0.667,0.386 -0.667,0.781l0,0.003c0,0.394 0.289,0.721 0.667,0.78l-0,-1.564Zm3,6.148c0.378,-0.06 0.666,-0.386 0.666,-0.781l0,-0.003c0,-0.394 -0.288,-0.721 -0.666,-0.78l-0,1.564Z"/>
</g>
</svg>