<svg xmlns="http://www.w3.org/2000/svg" aria-hidden="true" style="position:absolute;width:0;height:0;overflow:hidden">
  <defs>
    <symbol id="icon-close" viewBox="0 0 32 32">
      <path d="M23.733 10.304 22.229 8.8l-5.963 5.963L10.303 8.8l-1.504 1.504 5.963 5.963-5.963 5.963 1.504 1.504 5.963-5.963 5.963 5.963 1.504-1.504-5.963-5.963 5.963-5.963z"/>
    </symbol>
    <symbol id="icon-menu" viewBox="0 0 32 32">
      <path d="M3 7C3 6.44771 3.44772 6 4 6H24C24.5523 6 25 6.44771 25 7C25 7.55229 24.5523 8 24 8H4C3.44772 8 3 7.55229 3 7Z" fill="#000000"/>
      <path d="M3 14C3 13.4477 3.44772 13 4 13H24C24.5523 13 25 13.4477 25 14C25 14.5523 24.5523 15 24 15H4C3.44772 15 3 14.5523 3 14Z" fill="#000000"/>
      <path d="M4 20C3.44772 20 3 20.4477 3 21C3 21.5523 3.44772 22 4 22H24C24.5523 22 25 21.5523 25 21C25 20.4477 24.5523 20 24 20H4Z" fill="#000000"/>
    </symbol>
    <symbol id="icon-menu1" viewBox="0 0 32 32">
      <path d="M3 4H21" stroke="#71717A" stroke-width="1.5" stroke-linecap="round" stroke-linejoin="round"/>
      <path d="M3 12H21" stroke="#71717A" stroke-width="1.5" stroke-linecap="round" stroke-linejoin="round"/>
      <path d="M3 20H21" stroke="#71717A" stroke-width="1.5" stroke-linecap="round" stroke-linejoin="round"/>
    </symbol>
    <symbol id="icon-instagram" viewBox="0 0 32 32">
      <path fill-rule="evenodd" clip-rule="evenodd" d="M12 18C15.3137 18 18 15.3137 18 12C18 8.68629 15.3137 6 12 6C8.68629 6 6 8.68629 6 12C6 15.3137 8.68629 18 12 18ZM12 16C14.2091 16 16 14.2091 16 12C16 9.79086 14.2091 8 12 8C9.79086 8 8 9.79086 8 12C8 14.2091 9.79086 16 12 16Z" />
      <path d="M18 5C17.4477 5 17 5.44772 17 6C17 6.55228 17.4477 7 18 7C18.5523 7 19 6.55228 19 6C19 5.44772 18.5523 5 18 5Z" />
      <path fill-rule="evenodd" clip-rule="evenodd" d="M1.65396 4.27606C1 5.55953 1 7.23969 1 10.6V13.4C1 16.7603 1 18.4405 1.65396 19.7239C2.2292 20.8529 3.14708 21.7708 4.27606 22.346C5.55953 23 7.23969 23 10.6 23H13.4C16.7603 23 18.4405 23 19.7239 22.346C20.8529 21.7708 21.7708 20.8529 22.346 19.7239C23 18.4405 23 16.7603 23 13.4V10.6C23 7.23969 23 5.55953 22.346 4.27606C21.7708 3.14708 20.8529 2.2292 19.7239 1.65396C18.4405 1 16.7603 1 13.4 1H10.6C7.23969 1 5.55953 1 4.27606 1.65396C3.14708 2.2292 2.2292 3.14708 1.65396 4.27606ZM13.4 3H10.6C8.88684 3 7.72225 3.00156 6.82208 3.0751C5.94524 3.14674 5.49684 3.27659 5.18404 3.43597C4.43139 3.81947 3.81947 4.43139 3.43597 5.18404C3.27659 5.49684 3.14674 5.94524 3.0751 6.82208C3.00156 7.72225 3 8.88684 3 10.6V13.4C3 15.1132 3.00156 16.2777 3.0751 17.1779C3.14674 18.0548 3.27659 18.5032 3.43597 18.816C3.81947 19.5686 4.43139 20.1805 5.18404 20.564C5.49684 20.7234 5.94524 20.8533 6.82208 20.9249C7.72225 20.9984 8.88684 21 10.6 21H13.4C15.1132 21 16.2777 20.9984 17.1779 20.9249C18.0548 20.8533 18.5032 20.7234 18.816 20.564C19.5686 20.1805 20.1805 19.5686 20.564 18.816C20.7234 18.5032 20.8533 18.0548 20.9249 17.1779C20.9984 16.2777 21 15.1132 21 13.4V10.6C21 8.88684 20.9984 7.72225 20.9249 6.82208C20.8533 5.94524 20.7234 5.49684 20.564 5.18404C20.1805 4.43139 19.5686 3.81947 18.816 3.43597C18.5032 3.27659 18.0548 3.14674 17.1779 3.0751C16.2777 3.00156 15.1132 3 13.4 3Z" />
    </symbol>
    <symbol id="icon-facebook" viewBox="0 0 32 32">
      <path fill-rule="evenodd" clip-rule="evenodd" d="M20 1C21.6569 1 23 2.34315 23 4V20C23 21.6569 21.6569 23 20 23H4C2.34315 23 1 21.6569 1 20V4C1 2.34315 2.34315 1 4 1H20ZM20 3C20.5523 3 21 3.44772 21 4V20C21 20.5523 20.5523 21 20 21H15V13.9999H17.0762C17.5066 13.9999 17.8887 13.7245 18.0249 13.3161L18.4679 11.9871C18.6298 11.5014 18.2683 10.9999 17.7564 10.9999H15V8.99992C15 8.49992 15.5 7.99992 16 7.99992H18C18.5523 7.99992 19 7.5522 19 6.99992V6.31393C19 5.99091 18.7937 5.7013 18.4813 5.61887C17.1705 5.27295 16 5.27295 16 5.27295C13.5 5.27295 12 6.99992 12 8.49992V10.9999H10C9.44772 10.9999 9 11.4476 9 11.9999V12.9999C9 13.5522 9.44771 13.9999 10 13.9999H12V21H4C3.44772 21 3 20.5523 3 20V4C3 3.44772 3.44772 3 4 3H20Z" />
    </symbol>
    <symbol id="icon-done" viewBox="0 0 32 32">
      <rect x="0" y="0" width="24" height="24" rx="4" fill="var(--accent, #55EDCA)"/>
      <path d="M6.5 12.5 L10.2 16 L17.5 7.5" fill="none" stroke="#181818" stroke-width="1.2" stroke-linecap="round" stroke-linejoin="round"/>
    </symbol>
    <!-- <symbol id="icon-checkbox" viewBox="0 0 24 24">
      <rect x="21" y="3" width="18" height="18" rx="1" transform="rotate(90 21 3)"/>
      <path d="M6.66666 12.6667L9.99999 16L17.3333 8.66669"/>
    </symbol> -->
    <symbol id="icon-checkbox" viewBox="0 0 24 24">
      <rect x="21" y="3" width="18" height="18" rx="3" transform="rotate(90 21 3)"/>
      <path d="M6.5 12.5 L10.2 16 L17.5 7.5" fill="none" stroke="#181818" stroke-width="1" stroke-linecap="round" stroke-linejoin="round"/>
    </symbol>
    <symbol id="icon-chat" viewBox="0 0 32 32">
      <path fill="#000000" d="M273.536 736H800a64 64 0 0 0 64-64V256a64 64 0 0 0-64-64H224a64 64 0 0 0-64 64v570.88L273.536 736zM296 800 147.968 918.4A32 32 0 0 1 96 893.44V256a128 128 0 0 1 128-128h576a128 128 0 0 1 128 128v416a128 128 0 0 1-128 128H296z"/>
      <path d="M216,48H40A16,16,0,0,0,24,64V224a15.84,15.84,0,0,0,9.25,14.5A16.05,16.05,0,0,0,40,240a15.89,15.89,0,0,0,10.25-3.78l.09-.07L83,208H216a16,16,0,0,0,16-16V64A16,16,0,0,0,216,48ZM40,224h0ZM216,192H80a8,8,0,0,0-5.23,1.95L40,224V64H216Z"></path>
    </symbol>

  </defs>
</svg>